<svg width="111" height="12" viewBox="0 0 111 12" fill="none" xmlns="http://www.w3.org/2000/svg">
<path d="M8.064 2.11H4.816V11H3.465V2.11H0.21V0.968999H8.064V2.11ZM12.3315 5.827C12.7235 5.827 13.0688 5.78033 13.3675 5.687C13.6708 5.589 13.9228 5.45367 14.1235 5.281C14.3288 5.10367 14.4828 4.89367 14.5855 4.651C14.6882 4.40833 14.7395 4.14 14.7395 3.846C14.7395 3.24867 14.5435 2.79833 14.1515 2.495C13.7595 2.19167 13.1715 2.04 12.3875 2.04H10.9035V5.827H12.3315ZM16.9655 11H15.7615C15.5142 11 15.3322 10.9043 15.2155 10.713L12.6115 7.129C12.5322 7.017 12.4458 6.93767 12.3525 6.891C12.2638 6.83967 12.1238 6.814 11.9325 6.814H10.9035V11H9.55248V0.968999H12.3875C13.0222 0.968999 13.5705 1.03433 14.0325 1.165C14.4945 1.291 14.8748 1.47533 15.1735 1.718C15.4768 1.96067 15.7008 2.25467 15.8455 2.6C15.9902 2.94067 16.0625 3.32333 16.0625 3.748C16.0625 4.10267 16.0065 4.434 15.8945 4.742C15.7825 5.05 15.6192 5.32767 15.4045 5.575C15.1945 5.81767 14.9355 6.02533 14.6275 6.198C14.3242 6.37067 13.9788 6.50133 13.5915 6.59C13.7642 6.688 13.9135 6.83033 14.0395 7.017L16.9655 11ZM24.5178 9.894L24.5108 11H18.3298V0.968999H24.5108V2.075H19.6878V5.407H23.5938V6.471H19.6878V9.894H24.5178ZM34.5369 0.968999V11H33.8579C33.7506 11 33.6596 10.9813 33.5849 10.944C33.5149 10.9067 33.4449 10.8437 33.3749 10.755L27.5719 3.195C27.5812 3.31167 27.5882 3.426 27.5929 3.538C27.5976 3.65 27.5999 3.755 27.5999 3.853V11H26.4099V0.968999H27.1099C27.1706 0.968999 27.2219 0.973666 27.2639 0.982999C27.3059 0.987666 27.3432 0.999333 27.3759 1.018C27.4086 1.032 27.4412 1.05533 27.4739 1.088C27.5066 1.116 27.5416 1.15333 27.5789 1.2L33.3819 8.753C33.3726 8.63167 33.3632 8.515 33.3539 8.403C33.3492 8.28633 33.3469 8.17667 33.3469 8.074V0.968999H34.5369ZM45.7953 5.988C45.7953 6.73933 45.6763 7.423 45.4383 8.039C45.2003 8.655 44.8643 9.18233 44.4303 9.621C43.9963 10.0597 43.4736 10.4003 42.8623 10.643C42.2556 10.881 41.5836 11 40.8463 11H37.1013V0.968999H40.8463C41.5836 0.968999 42.2556 1.09033 42.8623 1.333C43.4736 1.571 43.9963 1.91167 44.4303 2.355C44.8643 2.79367 45.2003 3.321 45.4383 3.937C45.6763 4.553 45.7953 5.23667 45.7953 5.988ZM44.4023 5.988C44.4023 5.372 44.3183 4.82133 44.1503 4.336C43.9823 3.85067 43.7443 3.44 43.4363 3.104C43.1283 2.768 42.755 2.51133 42.3163 2.334C41.8776 2.15667 41.3876 2.068 40.8463 2.068H38.4593V9.901H40.8463C41.3876 9.901 41.8776 9.81233 42.3163 9.635C42.755 9.45767 43.1283 9.20333 43.4363 8.872C43.7443 8.536 43.9823 8.12533 44.1503 7.64C44.3183 7.15467 44.4023 6.604 44.4023 5.988ZM49.1097 11H47.7517V0.968999H49.1097V11ZM59.8025 0.968999V11H59.1235C59.0162 11 58.9252 10.9813 58.8505 10.944C58.7805 10.9067 58.7105 10.8437 58.6405 10.755L52.8375 3.195C52.8469 3.31167 52.8539 3.426 52.8585 3.538C52.8632 3.65 52.8655 3.755 52.8655 3.853V11H51.6755V0.968999H52.3755C52.4362 0.968999 52.4875 0.973666 52.5295 0.982999C52.5715 0.987666 52.6089 0.999333 52.6415 1.018C52.6742 1.032 52.7069 1.05533 52.7395 1.088C52.7722 1.116 52.8072 1.15333 52.8445 1.2L58.6475 8.753C58.6382 8.63167 58.6289 8.515 58.6195 8.403C58.6149 8.28633 58.6125 8.17667 58.6125 8.074V0.968999H59.8025ZM70.5149 6.177V10.027C70.0109 10.391 69.4719 10.664 68.8979 10.846C68.3286 11.0233 67.7033 11.112 67.0219 11.112C66.2146 11.112 65.4866 10.9883 64.8379 10.741C64.1893 10.489 63.6339 10.139 63.1719 9.691C62.7146 9.23833 62.3623 8.697 62.1149 8.067C61.8676 7.437 61.7439 6.744 61.7439 5.988C61.7439 5.22267 61.8629 4.525 62.1009 3.895C62.3436 3.265 62.6866 2.726 63.1299 2.278C63.5733 1.82533 64.1123 1.47533 64.7469 1.228C65.3816 0.980666 66.0909 0.856999 66.8749 0.856999C67.2716 0.856999 67.6403 0.887333 67.9809 0.947999C68.3216 1.004 68.6366 1.088 68.9259 1.2C69.2153 1.30733 69.4836 1.44033 69.7309 1.599C69.9783 1.753 70.2093 1.928 70.4239 2.124L70.0389 2.74C69.9783 2.83333 69.8989 2.894 69.8009 2.922C69.7076 2.94533 69.6026 2.922 69.4859 2.852C69.3739 2.78667 69.2456 2.70733 69.1009 2.614C68.9563 2.52067 68.7789 2.432 68.5689 2.348C68.3636 2.25933 68.1186 2.18467 67.8339 2.124C67.5539 2.06333 67.2203 2.033 66.8329 2.033C66.2683 2.033 65.7573 2.12633 65.2999 2.313C64.8426 2.495 64.4529 2.75867 64.1309 3.104C63.8089 3.44467 63.5616 3.86 63.3889 4.35C63.2163 4.83533 63.1299 5.38133 63.1299 5.988C63.1299 6.618 63.2186 7.18267 63.3959 7.682C63.5779 8.17667 63.8346 8.599 64.1659 8.949C64.5019 9.29433 64.9079 9.558 65.3839 9.74C65.8599 9.922 66.3943 10.013 66.9869 10.013C67.4536 10.013 67.8666 9.96167 68.2259 9.859C68.5899 9.75167 68.9446 9.60467 69.2899 9.418V7.213H67.7289C67.6403 7.213 67.5679 7.18733 67.5119 7.136C67.4606 7.08467 67.4349 7.02167 67.4349 6.947V6.177H70.5149ZM84.3025 0.968999V11H83.6235C83.5162 11 83.4252 10.9813 83.3505 10.944C83.2805 10.9067 83.2105 10.8437 83.1405 10.755L77.3375 3.195C77.3469 3.31167 77.3539 3.426 77.3585 3.538C77.3632 3.65 77.3655 3.755 77.3655 3.853V11H76.1755V0.968999H76.8755C76.9362 0.968999 76.9875 0.973666 77.0295 0.982999C77.0715 0.987666 77.1089 0.999333 77.1415 1.018C77.1742 1.032 77.2069 1.05533 77.2395 1.088C77.2722 1.116 77.3072 1.15333 77.3445 1.2L83.1475 8.753C83.1382 8.63167 83.1289 8.515 83.1195 8.403C83.1149 8.28633 83.1125 8.17667 83.1125 8.074V0.968999H84.3025ZM96.1349 5.988C96.1349 6.73933 96.0159 7.43 95.7779 8.06C95.5399 8.68533 95.2039 9.22433 94.7699 9.677C94.3359 10.1297 93.8133 10.482 93.2019 10.734C92.5953 10.9813 91.9233 11.105 91.1859 11.105C90.4486 11.105 89.7766 10.9813 89.1699 10.734C88.5633 10.482 88.0429 10.1297 87.6089 9.677C87.1749 9.22433 86.8389 8.68533 86.6009 8.06C86.3629 7.43 86.2439 6.73933 86.2439 5.988C86.2439 5.23667 86.3629 4.54833 86.6009 3.923C86.8389 3.293 87.1749 2.75167 87.6089 2.299C88.0429 1.84167 88.5633 1.487 89.1699 1.235C89.7766 0.982999 90.4486 0.856999 91.1859 0.856999C91.9233 0.856999 92.5953 0.982999 93.2019 1.235C93.8133 1.487 94.3359 1.84167 94.7699 2.299C95.2039 2.75167 95.5399 3.293 95.7779 3.923C96.0159 4.54833 96.1349 5.23667 96.1349 5.988ZM94.7419 5.988C94.7419 5.372 94.6579 4.819 94.4899 4.329C94.3219 3.839 94.0839 3.426 93.7759 3.09C93.4679 2.74933 93.0946 2.488 92.6559 2.306C92.2173 2.124 91.7273 2.033 91.1859 2.033C90.6493 2.033 90.1616 2.124 89.7229 2.306C89.2843 2.488 88.9086 2.74933 88.5959 3.09C88.2879 3.426 88.0499 3.839 87.8819 4.329C87.7139 4.819 87.6299 5.372 87.6299 5.988C87.6299 6.604 87.7139 7.157 87.8819 7.647C88.0499 8.13233 88.2879 8.54533 88.5959 8.886C88.9086 9.222 89.2843 9.481 89.7229 9.663C90.1616 9.84033 90.6493 9.929 91.1859 9.929C91.7273 9.929 92.2173 9.84033 92.6559 9.663C93.0946 9.481 93.4679 9.222 93.7759 8.886C94.0839 8.54533 94.3219 8.13233 94.4899 7.647C94.6579 7.157 94.7419 6.604 94.7419 5.988ZM110.926 0.968999L107.797 11H106.579L104.038 3.349C104.015 3.27433 103.992 3.195 103.968 3.111C103.95 3.027 103.929 2.93833 103.905 2.845C103.882 2.93833 103.859 3.027 103.835 3.111C103.812 3.195 103.789 3.27433 103.765 3.349L101.21 11H99.9925L96.8635 0.968999H97.9905C98.1118 0.968999 98.2122 0.999333 98.2915 1.06C98.3755 1.12067 98.4292 1.19767 98.4525 1.291L100.524 8.263C100.557 8.389 100.587 8.52433 100.615 8.669C100.648 8.81367 100.678 8.96767 100.706 9.131C100.739 8.96767 100.772 8.81367 100.804 8.669C100.842 8.51967 100.881 8.38433 100.923 8.263L103.282 1.291C103.31 1.21167 103.364 1.13933 103.443 1.074C103.527 1.004 103.628 0.968999 103.744 0.968999H104.136C104.258 0.968999 104.356 0.999333 104.43 1.06C104.505 1.12067 104.561 1.19767 104.598 1.291L106.95 8.263C106.992 8.38433 107.03 8.515 107.062 8.655C107.1 8.795 107.135 8.942 107.167 9.096C107.191 8.942 107.216 8.795 107.244 8.655C107.272 8.515 107.303 8.38433 107.335 8.263L109.414 1.291C109.438 1.207 109.489 1.13233 109.568 1.067C109.652 1.00167 109.753 0.968999 109.869 0.968999H110.926Z" fill="#6F6E6E"/>
</svg>
